# AST/ASF file generated using VICON BodyLanguage
# -----------------------------------------------
:version 1.10
:name VICON
:units
  mass 1.0
  length 0.45
  angle deg
:documentation
   .ast/.asf automatically generated from VICON data using
   VICON BodyBuilder and BodyLanguage model FoxedUp or BRILLIANT.MOD
:root
   order TX TY TZ RX RY RZ
   axis XYZ
   position 0 0 0  
   orientation 0 0 0 
:bonedata
  begin
     id 1 
     name lhipjoint
     direction 0.578396 -0.714046 0.394458 
     length 2.21935 
     axis 0 0 0  XYZ
  end
  begin
     id 2 
     name lfemur
     direction 0.34202 -0.939693 0  
     length 6.39105  
     axis 0 0 20  XYZ
    dof rx ry rz
    limits (-160.0 20.0)
           (-70.0 70.0)
           (-60.0 70.0)
  end
  begin
     id 3 
     name ltibia
     direction 0.34202 -0.939693 0   
     length 6.99037   
     axis 0 0 20   XYZ
    dof rx
    limits (-10.0 170.0)
  end
  begin
     id 4 
     name lfoot
     direction 0.0582372 -0.160005 0.985397   
     length 2.06111   
     axis -90 7.62852e-016 20   XYZ
    dof rx rz
    limits (-45.0 90.0)
           (-70.0 20.0)
  end
  begin
     id 5 
     name ltoes
     direction 1.53556e-011 -4.21875e-011 1   
     length 1.04074   
     axis -90 7.62852e-016 20   XYZ
    dof rx
    limits (-90.0 20.0)
  end
  begin
     id 6 
     name rhipjoint
     direction -0.558179 -0.726269 0.40121   
     length 2.182  
     axis 0 0 0  XYZ 
  end
  begin
     id 7 
     name rfemur
     direction -0.34202 -0.939693 0   
     length 6.51172   
     axis 0 0 -20   XYZ
    dof rx ry rz
    limits (-160.0 20.0)
           (-70.0 70.0)
           (-70.0 60.0)
  end
  begin
     id 8 
     name rtibia
     direction -0.34202 -0.939693 0   
     length 7.02607   
     axis 0 0 -20   XYZ
    dof rx
    limits (-10.0 170.0)
 end
 begin
     id 9 
     name rfoot
     direction -0.0788856 -0.216737 0.973038   
     length 1.96734  
     axis -90 -7.62852e-016 -20   XYZ
    dof rx rz
    limits (-45.0 90.0)
           (-20.0 70.0)
  end
  begin
     id 10 
     name rtoes
     direction -1.53567e-011 -4.21783e-011 1   
     length 0.990825   
     axis -90 -7.62852e-016 -20   XYZ
    dof rx
    limits (-90.0 20.0)
  end
  begin
     id 11 
     name lowerback
     direction 0.00668177 0.999323 -0.0361741   
     length 1.7655   
     axis 0 0 0   XYZ
    dof rx ry rz
    limits (-20.0 45.0)
           (-30.0 30.0)
           (-30.0 30.0)
  end
  begin
     id 12 
     name upperback
     direction -0.00222086 0.99851 0.0545167   
     length 1.74912   
     axis 0 0 0   XYZ
    dof rx ry rz
    limits (-20.0 45.0)
           (-30.0 30.0)
           (-30.0 30.0)
  end
  begin
     id 13 
     name thorax
     direction -0.00733971 0.997496 0.0703443   
     length 1.75715   
     axis 0 0 0   XYZ
    dof rx ry rz
    limits (-20.0 45.0)
           (-30.0 30.0)
           (-30.0 30.0)
  end
  begin
     id 14 
     name lowerneck
     direction 0.0279797 0.994795 0.0979765   
     length 1.46939   
     axis 0 0 0   XYZ
    dof rx ry rz
    limits (-20.0 45.0)
           (-30.0 30.0)
           (-30.0 30.0)
  end
  begin
     id 15 
     name upperneck
     direction 0.00339187 0.976776 -0.214238   
     length 1.48018   
     axis 0 0 0   XYZ
    dof rx ry rz
    limits (-20.0 45.0)
           (-30.0 30.0)
           (-30.0 30.0)
  end
  begin
     id 16
     name head
     direction -0.00263506 0.996603 -0.0823096  
     length 1.4976  
     axis 0 0 0   XYZ
    dof rx ry rz
    limits (-20.0 45.0)
           (-30.0 30.0)
           (-30.0 30.0)
  end
  begin
     id 17 
     name lclavicle
     direction 0.894044 0.44508 -0.0508781  
     length 3.03024  
     axis 0 0 0   XYZ
    dof ry rz
    limits (-20.0 10.0)
           (0.0 20.0)
  end
  begin
     id 18 
     name lhumerus
     direction 1 -4.48961e-011 -2.39475e-018   
     length 4.4661   
     axis 180 -30 -90   XYZ
    dof rx ry rz
    limits (-60.0 90.0)
           (-90.0 90.0)
           (-90.0 90.0)
  end
  begin
     id 19
     name lradius
     direction 1 -4.48961e-011 9.29328e-028   
     length 3.41414   
     axis 180 -30 -90   XYZ
    dof rx
    limits (-10.0 170.0)
  end
  begin
     id 20
     name lwrist
     direction 1 -4.48985e-011 1.53461e-026   
     length 1.70707   
     axis -1.09697e-014 90 90   XYZ
    dof ry
    limits (-180.0 0.0)
 end
  begin
     id 21 
     name lhand
     direction 1 -4.48966e-011 3.06923e-026   
     length 0.328298   
     axis -1.95843e-014 90 90   XYZ
    dof rx rz
    limits (-90.0 90.0)
           (-45.0 45.0)
  end
  begin
     id 22 
     name lfingers
     direction 1 -4.48893e-011 6.13845e-026   
     length 0.264682   
     axis -3.91686e-014 90 90   XYZ
    dof rx
    limits (0.0 90.0)
  end
  begin
     id 23
     name lthumb
     direction 0.707107 -6.34876e-011 0.707107   
     length 0.380032   
     axis -90 45 2.85299e-015   XYZ
    dof rx rz
    limits (-45.0 45.0)
           (-45.0 45.0)
  end
  begin
     id 24 
     name rclavicle
     direction -0.936955 0.347862 -0.0332887   
     length 3.26927  
     axis 0 0 0   XYZ 
    dof ry rz
    limits (-10.0 20.0)
           (-20.0 0.0)
  end
  begin
     id 25 
     name rhumerus
     direction -1 -4.4896e-011 1.78637e-018  
     length 4.40431   
     axis 180 30 90   XYZ
    dof rx ry rz
    limits (-90.0 60.0)
           (-90.0 90.0)
           (-90.0 90.0)
  end
  begin
     id 26 
     name rradius
     direction -1 -4.48955e-011 9.34036e-027   
     length 3.04688   
     axis 180 30 90   XYZ
    dof rx
    limits (-10.0 170.0)
  end
  begin
     id 27 
     name rwrist
     direction -1 -4.49011e-011 1.53461e-026   
     length 1.52344   
     axis -1.09697e-014 -90 -90   XYZ
    dof ry
    limits (-180.0 0.0)
  end
  begin
     id 28
     name rhand
     direction -1 -4.48834e-011 3.06923e-026   
     length 0.500489   
     axis -1.95843e-014 -90 -90   XYZ
    dof rx rz
    limits (-90.0 90.0)
           (-45.0 45.0)
  end
  begin
     id 29
     name rfingers
     direction -1 -4.48967e-011 6.13845e-026   
     length 0.403507   
     axis -3.91686e-014 -90 -90   XYZ
    dof rx
    limits (0.0 90.0)
  end
  begin
     id 30
     name rthumb
     direction -0.707107 -6.34826e-011 0.707107   
     length 0.579358   
     axis -90 -45 -2.85299e-015   XYZ
    dof rx rz
    limits (-45.0 45.0)
           (-45.0 45.0)
  end
:hierarchy
  begin
    root lhipjoint rhipjoint lowerback
    lhipjoint lfemur
    lfemur ltibia
    ltibia lfoot
    lfoot ltoes
    rhipjoint rfemur
    rfemur rtibia
    rtibia rfoot
    rfoot rtoes
    lowerback upperback
    upperback thorax
    thorax lowerneck lclavicle rclavicle
    lowerneck upperneck
    upperneck head
    lclavicle lhumerus
    lhumerus lradius
    lradius lwrist
    lwrist lhand lthumb
    lhand lfingers
    rclavicle rhumerus
    rhumerus rradius
    rradius rwrist
    rwrist rhand rthumb
    rhand rfingers
  end

#!OML:ASF H:\IndianDance\Patient Classification 1\Patient 1\Session 1\dancer.ASF
:FULLY-SPECIFIED
:DEGREES
688
root 2.44612 14.9855 3.64806 -182.391 -3.34872 -174.516
lowerback 11.7888 0.442976 0.10005
upperback -2.88023 0.786864 2.63442
thorax -9.77567 0.435811 2.62362
lowerneck -18.1441 5.13644 4.49697
upperneck 20.8882 3.80521 6.11064
head 9.61733 2.6387 1.86881
rclavicle -5.44539e-015 2.14447e-014
rhumerus -12.6483 20.1734 -23.1516
rradius 34.5599
rwrist 17.4788
rhand -48.5898 47.9322
rfingers 7.12502
rthumb -21.2351 19.0754
lclavicle -5.44539e-015 2.14447e-014
lhumerus 46.6558 -16.638 13.9177
lradius 76.3273
lwrist 25.9094
lhand -42.9821 10.7073
lfingers 7.12502
lthumb -15.8411 400.079
rfemur -25.0643 -11.6942 30.2024
rtibia 49.4697
rfoot -14.7045 6.92872
rtoes 18.0871
lfemur -72.2267 11.8509 -14.3993
ltibia 106.46
lfoot 30.7736 -6.51843
ltoes 11.9349
689
root 2.46684 15.0584 3.62573 -183.271 -3.36508 -174.592
lowerback 12.53 0.508629 -0.129593
upperback -2.55348 0.847356 2.66688
thorax -9.85688 0.478892 2.77545
lowerneck -18.2305 5.07946 4.48209
upperneck 20.7663 3.77177 6.00791
head 9.59144 2.6146 1.83103
rclavicle -1.14651e-014 9.33046e-015
rhumerus -12.2095 20.4921 -23.1009
rradius 34.6624
rwrist 17.3057
rhand -48.556 47.7193
rfingers 7.12502
rthumb -21.2026 18.8589
lclavicle -1.14651e-014 9.33046e-015
lhumerus 48.2323 -14.9288 15.3874
lradius 75.0614
lwrist 28.3939
lhand -38.1179 13.1034
lfingers 7.12502
lthumb -11.1529 402.787
rfemur -23.4679 -12.1705 29.9672
rtibia 48.4579
rfoot -13.6084 7.18053
rtoes 18.1224
lfemur -74.5758 12.5456 -15.624
ltibia 106.316
lfoot 32.4054 -6.47915
ltoes 13.8823
690
root 2.48708 15.129 3.60429 -184.192 -3.32747 -174.648
lowerback 13.3276 0.586014 -0.34727
upperback -2.21156 0.918223 2.70918
thorax -9.95381 0.523841 2.92909
lowerneck -18.3053 5.04144 4.47425
upperneck 20.6153 3.76866 5.89651
head 9.5531 2.60407 1.79223
rclavicle 1.21957e-014 -1.7754e-014
rhumerus -11.7051 20.8224 -23.0094
rradius 34.7706
rwrist 17.1911
rhand -48.5085 47.5342
rfingers 7.12502
rthumb -21.1569 18.6686
lclavicle 1.21957e-014 -1.7754e-014
lhumerus 49.8188 -13.2975 16.8455
lradius 73.7379
lwrist 31.2353
lhand -33.1993 15.1573
lfingers 7.12502
lthumb -6.40666 405.04
rfemur -21.8513 -12.582 29.7289
rtibia 47.4764
rfoot -12.4714 7.43843
rtoes 18.0927
lfemur -76.924 13.2261 -16.8928
ltibia 105.948
lfoot 33.8192 -6.31636
ltoes 15.6385
691
root 2.50601 15.1903 3.58216 -185.141 -3.23071 -174.683
lowerback 14.1683 0.659219 -0.552531
upperback -1.85508 0.977656 2.76973
thorax -10.0577 0.559888 3.09821
lowerneck -18.3826 5.03837 4.44716
upperneck 20.4534 3.8201 5.79076
head 9.50995 2.61853 1.76577
rclavicle -1.07973e-014 -2.53699e-014
rhumerus -11.0722 21.1551 -22.8719
rradius 34.8765
rwrist 17.1389
rhand -48.4584 47.375
rfingers 7.12502
rthumb -21.1088 18.5041
lclavicle -1.07973e-014 -2.53699e-014
lhumerus 51.3589 -11.7279 18.3085
lradius 72.3364
lwrist 34.4564
lhand -28.4345 16.8985
lfingers 7.12502
lthumb -1.80559 406.871
rfemur -20.2392 -12.9196 29.492
rtibia 46.544
rfoot -11.3226 7.68993
rtoes 17.9403
lfemur -79.3244 13.8741 -18.195
ltibia 105.401
lfoot 35.0054 -6.09485
ltoes 17.0105
692
root 2.52446 15.2552 3.56144 -186.103 -3.07407 -174.702
lowerback 15.0316 0.727581 -0.744834
upperback -1.49098 1.02436 2.84498
thorax -10.1635 0.586183 3.27945
lowerneck -18.4611 5.0702 4.40383
upperneck 20.2862 3.92486 5.68847
head 9.464 2.65738 1.75031
rclavicle 3.75983e-015 -3.40419e-015
rhumerus -10.3138 21.4782 -22.6904
rradius 34.9781
rwrist 17.141
rhand -48.4167 47.2919
rfingers 7.12502
rthumb -21.0687 18.4164
lclavicle 3.75983e-015 -3.40419e-015
lhumerus 52.8351 -10.2035 19.7587
lradius 70.8727
lwrist 38.057
lhand -23.9568 18.3938
lfingers 7.12502
lthumb 2.51912 408.359
rfemur -18.6058 -13.1753 29.2596
rtibia 45.6049
rfoot -10.1753 7.92632
rtoes 17.6975
lfemur -81.6598 14.4883 -19.5134
ltibia 104.578
lfoot 35.9608 -5.79261
ltoes 18.1145
